<svg width="25" height="26" viewBox="0 0 25 26" fill="none" xmlns="http://www.w3.org/2000/svg">
    <path d="M24.775 24.4 18.3 18.05a10.831 10.831 0 0 0 2.025-3.175c.484-1.2.725-2.458.725-3.774a9.92 9.92 0 0 0-1.45-5.226 10.123 10.123 0 0 0-3.775-3.725C14.192 1.217 12.417.75 10.5.75c-1.9 0-3.666.467-5.3 1.4a10.372 10.372 0 0 0-3.775 3.725A10.05 10.05 0 0 0 0 11.101c0 1.883.475 3.624 1.425 5.225A10.372 10.372 0 0 0 5.2 20.05c1.634.934 3.409 1.4 5.325 1.4 1.217 0 2.409-.208 3.575-.624a10.5 10.5 0 0 0 3.05-1.675l6.475 6.375c.167.15.359.224.575.224.217 0 .4-.083.55-.25a.712.712 0 0 0 .25-.55c0-.216-.075-.4-.225-.55zm-14.25-4.55c-1.616 0-3.116-.4-4.5-1.2a8.651 8.651 0 0 1-3.175-3.124A8.476 8.476 0 0 1 1.625 11.1c0-1.584.409-3.059 1.225-4.426A8.651 8.651 0 0 1 6.025 3.55a8.788 8.788 0 0 1 4.475-1.2c1.617 0 3.117.4 4.5 1.2a8.595 8.595 0 0 1 3.2 3.125 8.475 8.475 0 0 1 1.225 4.426 8.476 8.476 0 0 1-1.225 4.424 8.595 8.595 0 0 1-3.2 3.126 8.788 8.788 0 0 1-4.475 1.2z" fill="#A3A3A3"/>
</svg>
